# xmcd CD database file
#
# Track frame offsets:
#       150
#       9833
#       28238
#       50135
#       60230
#       87853
#       111038
#       132762
#       156424
#       175333
#
# Disc length: 2534 seconds
#
# Revision: 2
# Processed by: cddbd v1.5.2PL0 Copyright (c) Steve Scherf et al.
# Submitted via: jack 3.1.1
#
DISCID=7a09e40a
DTITLE=Emma-Lee - Never Just a Dream
DYEAR=2009
DGENRE=Singer/Songwriter
TTITLE0=Buise Easy
TTITLE1=That Sinking Feeling
TTITLE2=Never Just a Dream
TTITLE3=Jealousy
TTITLE4=Flow
TTITLE5=Isn't It Obvious
TTITLE6=Mr. Buttonlip
TTITLE7=An Older Man
TTITLE8=Where You Want to Be
TTITLE9=Until We Meet Again
EXTD=
EXTT0=
EXTT1=
EXTT2=
EXTT3=
EXTT4=
EXTT5=
EXTT6=
EXTT7=
EXTT8=
EXTT9=
PLAYORDER=
